<!DOCTYPE svg PUBLIC "-//W3C//DTD SVG 1.1//EN" "http://www.w3.org/Graphics/SVG/1.1/DTD/svg11.dtd">
<!-- Uploaded to: SVG Repo, www.svgrepo.com, Transformed by: SVG Repo Mixer Tools -->
<svg fill="#fcfcfc" width="168px" height="168px" viewBox="0 0 32 32" xmlns="http://www.w3.org/2000/svg" stroke="#fcfcfc" transform="rotate(0)matrix(-1, 0, 0, 1, 0, 0)" stroke-width="0.00032">
<g id="SVGRepo_bgCarrier" stroke-width="0"/>
<g id="SVGRepo_tracerCarrier" stroke-linecap="round" stroke-linejoin="round" stroke="#5AC8FA" stroke-width="0.8320000000000001"> <title/> <g data-name="Layer 30" id="Layer_30"> <path d="M28,28.59A2,2,0,0,1,26.59,28l-2-2H9a7,7,0,0,1-7-7V9A7,7,0,0,1,9,2H23a7,7,0,0,1,7,7V26.59a2,2,0,0,1-1.23,1.84A1.9,1.9,0,0,1,28,28.59ZM9,4A5,5,0,0,0,4,9V19a5,5,0,0,0,5,5H25a1,1,0,0,1,.71.29L28,26.59V9a5,5,0,0,0-5-5Z"/> <path d="M9,16a2,2,0,1,1,2-2A2,2,0,0,1,9,16Zm0-2Z"/> <path d="M16,16a2,2,0,1,1,2-2A2,2,0,0,1,16,16Zm0-2Z"/> <path d="M23,16a2,2,0,1,1,2-2A2,2,0,0,1,23,16Zm0-2Z"/> <path d="M4,13.41l-.48,5.83C3.52,22.55,3.39,25,9,25H25l2.29,2.29a1,1,0,0,0,1.71-.7l-1-9.27c0,4.37-5,3.3-9.43,3.3C7.38,20.62,4,16,4,13.41Z"/> </g> </g>
<g id="SVGRepo_iconCarrier"> <title/> <g data-name="Layer 30" id="Layer_30"> <path d="M28,28.59A2,2,0,0,1,26.59,28l-2-2H9a7,7,0,0,1-7-7V9A7,7,0,0,1,9,2H23a7,7,0,0,1,7,7V26.59a2,2,0,0,1-1.23,1.84A1.9,1.9,0,0,1,28,28.59ZM9,4A5,5,0,0,0,4,9V19a5,5,0,0,0,5,5H25a1,1,0,0,1,.71.29L28,26.59V9a5,5,0,0,0-5-5Z"/> <path d="M9,16a2,2,0,1,1,2-2A2,2,0,0,1,9,16Zm0-2Z"/> <path d="M16,16a2,2,0,1,1,2-2A2,2,0,0,1,16,16Zm0-2Z"/> <path d="M23,16a2,2,0,1,1,2-2A2,2,0,0,1,23,16Zm0-2Z"/> <path d="M4,13.41l-.48,5.83C3.52,22.55,3.39,25,9,25H25l2.29,2.29a1,1,0,0,0,1.71-.7l-1-9.27c0,4.37-5,3.3-9.43,3.3C7.38,20.62,4,16,4,13.41Z"/> </g> </g>
</svg>