<!DOCTYPE svg PUBLIC "-//W3C//DTD SVG 1.1//EN" "http://www.w3.org/Graphics/SVG/1.1/DTD/svg11.dtd">
<!-- Uploaded to: SVG Repo, www.svgrepo.com, Transformed by: SVG Repo Mixer Tools -->
<svg height="211px" width="211px" version="1.1" id="_x32_" xmlns="http://www.w3.org/2000/svg" xmlns:xlink="http://www.w3.org/1999/xlink" viewBox="0 0 512 512" xml:space="preserve" fill="#0092d1" stroke="#0092d1">
<g id="SVGRepo_bgCarrier" stroke-width="0"/>
<g id="SVGRepo_tracerCarrier" stroke-linecap="round" stroke-linejoin="round"/>
<g id="SVGRepo_iconCarrier"> <style type="text/css"> .st0{fill:#0284c5;} </style> <g> <path class="st0" d="M381.883,0H160.579l-5.185,5.129L54.217,106.306l-5.158,5.214v319.5c0,44.656,36.324,80.98,80.98,80.98 h251.844c44.699,0,81.058-36.324,81.058-80.98V80.987C462.941,36.331,426.582,0,381.883,0z M209.71,63.978h21.635v7.915 c0,3.656,1.049,7.298,3.441,10.164c2.37,2.88,6.184,4.712,10.552,4.668l1.049-0.029c4.374-0.208,7.678-2.176,9.603-4.382 c1.932-2.154,2.816-4.468,3.232-5.143c0.775-1.465,1.314-2.766,2.255-3.807c0.948-0.984,1.968-1.767,4.583-1.968l0.603-0.022 c2.506,0.043,3.85,0.826,4.92,2.054c1.049,1.236,1.724,3.182,1.724,5.452v23.158c0,2.27-0.675,4.216-1.724,5.452 c-1.077,1.221-2.42,2.011-4.934,2.047l-0.603-0.014c-2.6-0.202-3.613-0.992-4.568-1.976c-0.941-1.034-1.48-2.342-2.262-3.792 c-0.41-0.675-1.293-2.996-3.225-5.15c-1.925-2.205-5.229-4.181-9.61-4.382h0.021l-1.063-0.036 c-4.368-0.036-8.181,1.795-10.552,4.676c-2.392,2.866-3.441,6.501-3.441,10.164v7.915H209.71V63.978z M209.71,124.299h21.635v7.908 c0,3.656,1.049,7.298,3.441,10.164c2.37,2.873,6.184,4.712,10.552,4.668l1.049-0.028c4.367-0.201,7.678-2.169,9.603-4.382 c1.94-2.154,2.823-4.475,3.232-5.157c0.775-1.451,1.314-2.752,2.255-3.786c0.956-0.984,1.968-1.774,4.583-1.975l0.588-0.014 c2.514,0.036,3.858,0.826,4.934,2.047c1.049,1.243,1.724,3.182,1.724,5.452v23.158c0,2.27-0.675,4.216-1.724,5.452 c-1.07,1.221-2.42,2.011-4.92,2.047l-0.611-0.014c-2.607-0.202-3.628-0.984-4.576-1.968c-0.941-1.042-1.48-2.342-2.255-3.8 c-0.417-0.683-1.3-2.996-3.232-5.15c-1.925-2.205-5.229-4.181-9.603-4.389l-1.035-0.028c-4.374-0.044-8.195,1.789-10.566,4.669 c-2.392,2.866-3.441,6.515-3.441,10.178v7.908H209.71V124.299z M209.71,184.613h21.635v7.902c0,3.663,1.056,7.312,3.455,10.178 c2.37,2.88,6.198,4.712,10.573,4.676l0.998-0.029c4.389-0.208,7.7-2.191,9.625-4.396c1.925-2.154,2.816-4.475,3.218-5.143 c0.782-1.458,1.322-2.766,2.262-3.807c0.956-0.984,1.968-1.767,4.576-1.968l0.596-0.015c2.514,0.036,3.858,0.826,4.934,2.047 c1.049,1.236,1.724,3.175,1.724,5.438v23.186c0,2.256-0.668,4.194-1.724,5.43c-1.07,1.228-2.413,2.011-4.912,2.047l-0.61-0.014 c-2.615-0.202-3.635-0.984-4.583-1.968c-0.941-1.034-1.48-2.334-2.255-3.792c-0.41-0.683-1.3-3.002-3.232-5.158 c-1.925-2.205-5.229-4.181-9.603-4.389l-1.035-0.029c-4.374-0.043-8.195,1.796-10.566,4.676c-2.392,2.866-3.441,6.514-3.441,10.178 v7.902H209.71V184.613z M209.71,244.921h21.635v7.908c0,3.663,1.049,7.304,3.441,10.177c2.37,2.88,6.192,4.719,10.566,4.677 l1.028-0.029c4.382-0.208,7.686-2.184,9.61-4.389c1.932-2.155,2.823-4.475,3.232-5.158c0.775-1.458,1.314-2.765,2.255-3.8 c0.948-0.984,1.968-1.767,4.583-1.968h0.021l0.582-0.021c2.499,0.043,3.85,0.826,4.92,2.054c1.049,1.236,1.724,3.182,1.724,5.438 v23.178c0,2.256-0.675,4.196-1.724,5.438c-1.077,1.221-2.427,2.011-4.934,2.047l-0.603-0.014c-2.6-0.202-3.613-0.984-4.568-1.968 c-0.941-1.042-1.48-2.348-2.255-3.807c-0.41-0.668-1.3-2.988-3.225-5.143c-1.925-2.205-5.236-4.188-9.618-4.389l-1.013-0.029 c-4.382-0.044-8.202,1.795-10.573,4.676c-2.392,2.866-3.448,6.508-3.448,10.172v7.908H209.71V244.921z M209.71,305.235h21.635 v7.915c0,3.656,1.049,7.298,3.441,10.164c2.37,2.88,6.184,4.712,10.552,4.668l1.049-0.029c4.374-0.208,7.678-2.176,9.603-4.382 c1.932-2.155,2.816-4.468,3.232-5.143c0.775-1.465,1.314-2.766,2.255-3.807c0.948-0.984,1.968-1.766,4.583-1.968l0.603-0.021 c2.506,0.043,3.85,0.826,4.92,2.054c1.049,1.236,1.724,3.182,1.724,5.452v23.158c0,2.27-0.675,4.209-1.724,5.452 c-1.077,1.221-2.427,2.011-4.934,2.047l-0.603-0.015c-2.6-0.201-3.613-0.991-4.568-1.975c-0.941-1.034-1.48-2.342-2.262-3.792 c-0.41-0.675-1.293-2.996-3.225-5.15c-1.925-2.205-5.229-4.181-9.61-4.382h0.021l-1.063-0.036 c-4.368-0.036-8.181,1.795-10.552,4.676c-2.392,2.866-3.441,6.501-3.441,10.164v7.915H209.71V305.235z M209.71,365.556h21.635 v7.901c0,3.664,1.049,7.305,3.448,10.171c2.371,2.873,6.184,4.712,10.558,4.668l1.028-0.028c4.382-0.201,7.686-2.176,9.61-4.382 c1.932-2.155,2.816-4.475,3.232-5.158c0.775-1.45,1.314-2.758,2.255-3.792c0.956-0.984,1.968-1.767,4.576-1.968l0.596-0.014 c2.514,0.036,3.858,0.826,4.934,2.047c1.049,1.236,1.724,3.182,1.724,5.444v23.165c0,2.269-0.675,4.209-1.724,5.444 c-1.07,1.221-2.413,2.011-4.92,2.047l-0.618-0.014c-2.6-0.201-3.62-0.984-4.568-1.976c-0.941-1.034-1.48-2.334-2.255-3.792 c-0.417-0.682-1.3-3.002-3.232-5.15c-1.925-2.205-5.229-4.181-9.61-4.382l-1.042-0.036c-4.368-0.036-8.181,1.796-10.552,4.676 c-2.392,2.866-3.441,6.5-3.441,10.164v7.915H209.71V365.556z M195,493.978h-64.961c-34.714,0-62.958-28.244-62.958-62.958V111.507 h65.386c15.493,0,28.099-12.606,28.099-28.099V18.022H195V493.978z M231.345,470.914v23.065H209.71v-68.116h21.635v7.908 c0,3.664,1.056,7.305,3.448,10.172c2.377,2.88,6.192,4.712,10.573,4.676l0.998-0.028c4.396-0.202,7.708-2.184,9.632-4.389 c1.925-2.155,2.816-4.475,3.218-5.143c0.782-1.459,1.322-2.766,2.262-3.807c0.956-0.984,1.968-1.767,4.576-1.968l0.596-0.014 c2.507,0.036,3.858,0.826,4.934,2.047c1.049,1.236,1.724,3.174,1.724,5.438v23.178c0,2.256-0.675,4.202-1.724,5.438 c-1.07,1.221-2.42,2.011-4.92,2.047l-0.611-0.014c-2.607-0.202-3.628-0.984-4.576-1.968c-0.941-1.041-1.48-2.342-2.255-3.8 c-0.41-0.682-1.3-2.996-3.225-5.158c-1.925-2.205-5.236-4.18-9.61-4.389l-1.02-0.028c-4.382-0.043-8.202,1.796-10.573,4.676 C232.394,463.602,231.345,467.251,231.345,470.914z M302.297,493.978H238.7v-23.065c-0.007-2.269,0.675-4.208,1.724-5.452 c1.078-1.221,2.428-2.011,4.942-2.047l0.596,0.014c2.601,0.201,3.614,0.984,4.568,1.975c0.942,1.034,1.48,2.342,2.256,3.8 c0.409,0.675,1.293,2.995,3.232,5.15c1.925,2.205,5.236,4.181,9.611,4.389l1.034,0.029c4.367,0.044,8.188-1.795,10.558-4.676 c2.385-2.866,3.433-6.508,3.44-10.164v-7.548h21.635V493.978z M302.297,449.028h-21.635v-8.275 c-0.007-3.664-1.055-7.305-3.447-10.172c-2.378-2.88-6.192-4.712-10.566-4.668l-1.013,0.029c-4.382,0.201-7.693,2.176-9.618,4.389 c-1.939,2.154-2.823,4.475-3.232,5.15c-0.776,1.458-1.314,2.758-2.256,3.8c-0.955,0.984-1.968,1.767-4.568,1.968l-0.596,0.014 c-2.514-0.036-3.864-0.826-4.942-2.047c-1.049-1.243-1.731-3.182-1.724-5.445v-23.178c-0.007-2.262,0.668-4.202,1.717-5.438 c1.077-1.221,2.414-2.004,4.92-2.047l0.61,0.022c2.615,0.194,3.634,0.984,4.582,1.961c0.942,1.035,1.48,2.342,2.256,3.8 c0.409,0.675,1.293,2.996,3.232,5.15c1.925,2.205,5.236,4.18,9.611,4.389l1.034,0.028c4.367,0.036,8.188-1.795,10.558-4.676 c2.392-2.866,3.433-6.508,3.44-10.171v-7.908h21.635V449.028z M302.297,388.348h-21.635v-7.902 c-0.007-3.663-1.055-7.304-3.447-10.178c-2.37-2.874-6.192-4.712-10.566-4.669l-1.027,0.028c-4.368,0.201-7.679,2.176-9.604,4.382 c-1.932,2.155-2.823,4.475-3.232,5.15c-0.776,1.465-1.314,2.766-2.256,3.8c-0.948,0.984-1.968,1.766-4.568,1.968l-0.61,0.014 c-2.506-0.036-3.857-0.826-4.927-2.047c-1.056-1.236-1.731-3.174-1.724-5.438v-23.171c-0.007-2.263,0.668-4.202,1.717-5.438 c1.077-1.221,2.42-2.004,4.92-2.047l0.603,0.021h0.021c2.601,0.201,3.62,0.984,4.568,1.968c0.942,1.027,1.48,2.334,2.256,3.792 c0.409,0.675,1.3,2.995,3.232,5.15c1.925,2.205,5.229,4.181,9.611,4.389l1.02,0.029c4.375,0.036,8.196-1.796,10.566-4.676 c2.392-2.866,3.44-6.514,3.447-10.178v-7.902h21.635V388.348z M302.297,328.04h-21.635v-7.901c-0.007-3.67-1.049-7.312-3.44-10.178 c-2.37-2.887-6.192-4.719-10.558-4.683l-1.049,0.036c-4.36,0.208-7.671,2.184-9.596,4.389c-1.939,2.154-2.823,4.475-3.232,5.157 c-0.776,1.451-1.314,2.758-2.256,3.786c-0.948,0.984-1.968,1.767-4.568,1.968l-0.624,0.014c-2.506-0.036-3.843-0.819-4.92-2.04 c-1.048-1.236-1.724-3.175-1.717-5.438v-23.178c-0.007-2.263,0.675-4.202,1.724-5.445c1.078-1.221,2.428-2.011,4.942-2.047 l0.582,0.015c2.615,0.201,3.628,0.983,4.582,1.967c0.942,1.035,1.48,2.342,2.263,3.8c0.402,0.675,1.286,2.996,3.225,5.15 c1.925,2.205,5.236,4.188,9.618,4.389l1.013,0.029c4.375,0.036,8.196-1.796,10.566-4.676c2.392-2.859,3.44-6.501,3.447-10.164 v-7.901h21.635V328.04z M302.297,267.733h-21.635v-7.922c-0.007-3.664-1.055-7.298-3.44-10.164 c-2.37-2.88-6.192-4.719-10.558-4.683L265.607,245h0.022c-4.375,0.208-7.686,2.184-9.611,4.389 c-1.939,2.154-2.823,4.475-3.232,5.158c-0.776,1.458-1.314,2.765-2.256,3.8c-0.948,0.983-1.968,1.767-4.575,1.968l-0.604,0.015 c-2.506-0.036-3.857-0.826-4.927-2.047c-1.049-1.243-1.731-3.182-1.724-5.452v-23.165c-0.007-2.27,0.675-4.216,1.724-5.452 c1.07-1.221,2.421-2.011,4.927-2.047l0.589,0.015c2.622,0.201,3.642,0.984,4.59,1.968c0.942,1.035,1.48,2.342,2.256,3.8 c0.409,0.682,1.293,3.002,3.232,5.158c1.925,2.205,5.236,4.18,9.618,4.381l1.035,0.029c4.374,0.044,8.181-1.795,10.551-4.676 c2.392-2.859,3.433-6.501,3.44-10.157v-7.922h21.635V267.733z M302.297,207.405h-21.635v-7.908 c-0.007-3.664-1.055-7.305-3.447-10.171c-2.37-2.88-6.192-4.712-10.566-4.669l-1.027,0.029c-4.368,0.201-7.679,2.176-9.604,4.389 c-1.939,2.155-2.823,4.475-3.232,5.15c-0.776,1.458-1.314,2.765-2.256,3.8c-0.955,0.991-1.968,1.774-4.575,1.975l-0.582,0.015 c-2.514-0.036-3.872-0.826-4.949-2.054c-1.049-1.236-1.731-3.182-1.724-5.444V169.35c-0.007-2.269,0.675-4.209,1.724-5.444 c1.07-1.228,2.421-2.011,4.927-2.054l0.589,0.022c2.622,0.202,3.642,0.984,4.59,1.968c0.942,1.034,1.48,2.342,2.256,3.8 c0.409,0.675,1.293,2.995,3.232,5.15c1.925,2.205,5.236,4.181,9.611,4.389l1.034,0.029c4.367,0.043,8.188-1.796,10.558-4.676 c2.392-2.866,3.433-6.515,3.44-10.178v-7.908h21.635V207.405z M302.297,147.09h-21.635v-7.894 c-0.007-3.663-1.055-7.312-3.447-10.178c-2.37-2.88-6.192-4.719-10.566-4.676l-1.034,0.028c-4.367,0.208-7.671,2.184-9.596,4.389 c-1.932,2.155-2.823,4.475-3.225,5.143c-0.783,1.465-1.322,2.773-2.263,3.807c-0.948,0.984-1.961,1.767-4.568,1.961l-0.624,0.014 c-2.506-0.035-3.843-0.818-4.92-2.04c-1.048-1.236-1.724-3.174-1.717-5.438v-23.178c-0.007-2.262,0.668-4.202,1.717-5.438 c1.077-1.221,2.42-2.004,4.92-2.047l0.603,0.021h0.021c2.601,0.202,3.62,0.984,4.568,1.968c0.942,1.028,1.48,2.334,2.256,3.792 c0.409,0.675,1.3,2.996,3.232,5.15c1.925,2.205,5.229,4.181,9.611,4.389l1.02,0.029c4.375,0.036,8.196-1.789,10.566-4.676 c2.392-2.866,3.44-6.508,3.447-10.178v-7.894h21.635V147.09z M302.297,86.79h-21.635v-7.908c-0.007-3.67-1.049-7.312-3.44-10.178 c-2.37-2.888-6.192-4.72-10.558-4.684l-1.049,0.036c-4.36,0.208-7.671,2.184-9.596,4.389c-1.939,2.155-2.823,4.475-3.232,5.157 c-0.776,1.451-1.314,2.758-2.256,3.785c-0.948,0.984-1.968,1.767-4.568,1.968l-0.624,0.014c-2.506-0.036-3.843-0.819-4.92-2.04 c-1.048-1.236-1.724-3.175-1.717-5.438V48.722c-0.007-2.263,0.675-4.202,1.731-5.445c1.078-1.228,2.428-2.018,4.949-2.054 l0.568,0.015c2.615,0.201,3.628,0.984,4.582,1.975c0.942,1.035,1.48,2.342,2.256,3.8c0.409,0.675,1.293,2.996,3.232,5.15 c1.925,2.205,5.236,4.181,9.618,4.382l1.028,0.029c4.367,0.036,8.188-1.796,10.552-4.676c2.392-2.859,3.44-6.501,3.447-10.157 V18.611h-7.355V41.74c0,2.256-0.668,4.194-1.724,5.43c-1.07,1.221-2.42,2.012-4.92,2.047l-0.611-0.014 c-2.607-0.194-3.62-0.977-4.576-1.961c-0.941-1.042-1.48-2.349-2.255-3.807c-0.41-0.675-1.3-2.988-3.225-5.15 c-1.925-2.205-5.236-4.181-9.61-4.389l-1.006-0.029c-4.382-0.043-8.21,1.796-10.58,4.676c-2.399,2.866-3.455,6.514-3.455,10.178 v7.901H209.71V18.022h92.587V86.79z M444.919,431.02c0,34.714-28.279,62.958-63.037,62.958h-64.875V18.022h64.875 c34.758,0,63.037,28.244,63.037,62.965V431.02z"/> </g> </g>
</svg>